<?xml version="1.0" encoding="utf-8"?>
<!-- Uploaded to: SVG Repo, www.svgrepo.com, Generator: SVG Repo Mixer Tools -->
<svg width="800px" height="800px" viewBox="0 0 1024 1024" class="icon"  version="1.1" xmlns="http://www.w3.org/2000/svg"><path d="M864 704h-87c-52.9 0-96-43.1-96-96V416c0-52.9 43.1-96 96-96h87c52.9 0 96 43.1 96 96v192c0 52.9-43.1 96-96 96z m-87-320c-17.6 0-32 14.4-32 32v192c0 17.6 14.4 32 32 32h87c17.6 0 32-14.4 32-32V416c0-17.6-14.4-32-32-32h-87z" fill="#536DFE" /><path d="M704 832H128c-35.3 0-64-28.7-64-64V255.9c0-35.3 28.7-64 64-64h576c35.3 0 64 28.7 64 64V768c0 35.3-28.7 64-64 64z" fill="#536DFE" /><path d="M640.1 768h-448c-35.3 0-64-28.7-64-64V191.9h576V704c0 35.3-28.6 64-64 64z" fill="#FFEA00" /><path d="M128.2 191.9h576v256.3h-576z" fill="#FFFF00" /><path d="M128.2 191.9h576v127.9h-576z" fill="#3D5AFE" /></svg>